# Blender v2.80 (sub 75) OBJ File: 'tank.blend'
# www.blender.org
o tank-base_Cube
v 0.645520 0.500000 0.145520
v 0.645520 0.395520 0.250000
v 0.750000 0.395520 0.145520
v 0.645520 0.395520 -0.250000
v 0.645520 0.500000 -0.145520
v 0.750000 0.395520 -0.145520
v 0.750000 -0.395520 0.145520
v 0.645520 -0.395520 0.250000
v 0.645520 -0.500000 0.145520
v 0.750000 -0.395520 -0.145520
v 0.645520 -0.500000 -0.145520
v 0.645520 -0.395520 -0.250000
v -0.645520 0.500000 0.145520
v -0.750000 0.395520 0.145520
v -0.645520 0.395520 0.250000
v -0.750000 0.395520 -0.145520
v -0.645520 0.500000 -0.145520
v -0.645520 0.395520 -0.250000
v -0.750000 -0.395520 0.145520
v -0.645520 -0.500000 0.145520
v -0.645520 -0.395520 0.250000
v -0.645520 -0.395520 -0.250000
v -0.645520 -0.500000 -0.145520
v -0.750000 -0.395520 -0.145520
vt 0.195508 0.920138
vt 0.097603 0.830157
vt 0.097603 0.920138
vt 0.852376 0.070561
vt 0.852376 0.160542
vt 0.852376 0.070561
vt 0.958204 0.058676
vt 0.860299 0.058676
vt 0.958204 0.058676
vt 0.451048 0.929439
vt 0.548952 0.839458
vt 0.548952 0.929439
vt 0.966127 0.160542
vt 0.966127 0.070561
vt 0.966127 0.160542
vt 0.195508 0.209632
vt 0.195508 0.197747
vt 0.203431 0.197747
vt 0.195508 0.932023
vt 0.203431 0.920138
vt 0.203431 0.107765
vt 0.195508 0.107765
vt 0.195508 0.095881
vt 0.203431 0.830157
vt 0.195508 0.818272
vt 0.195508 0.830157
vt 0.097603 0.209632
vt 0.089680 0.197747
vt 0.097603 0.197747
vt 0.089680 0.920138
vt 0.097603 0.932023
vt 0.089680 0.107765
vt 0.097603 0.095881
vt 0.097603 0.107765
vt 0.097603 0.818272
vt 0.089680 0.830157
vt 0.958204 0.172427
vt 0.860299 0.058676
vt 0.966127 0.070561
vt 0.860299 0.172427
vt 0.852376 0.160542
vt 0.860299 0.172427
vt 0.091402 0.479812
vt 0.189307 0.467928
vt 0.189307 0.479812
vt 0.197230 0.569794
vt 0.189307 0.569794
vt 0.091402 0.569794
vt 0.083479 0.479812
vt 0.091402 0.581679
vt 0.958204 0.172427
vt 0.451048 0.839458
vt 0.091402 0.467928
vt 0.197230 0.479812
vt 0.083479 0.569794
vt 0.189307 0.581679
vn 0.0000 0.0000 -1.0000
vn -1.0000 0.0000 0.0000
vn 0.0000 -1.0000 0.0000
vn 0.0000 0.0000 1.0000
vn 1.0000 0.0000 0.0000
vn 0.5774 0.5774 0.5774
vn 0.5774 0.5774 -0.5774
vn 0.5774 -0.5774 0.5774
vn 0.5774 -0.5774 -0.5774
vn -0.5774 0.5774 0.5774
vn -0.5774 0.5774 -0.5774
vn -0.5774 -0.5774 0.5774
vn -0.5774 -0.5774 -0.5774
vn -0.7071 0.0000 -0.7071
vn 0.0000 0.7071 -0.7071
vn 0.7071 0.7071 0.0000
vn -0.7071 -0.7071 0.0000
vn 0.7071 -0.7071 0.0000
vn -0.7071 0.7071 0.0000
vn 0.0000 -0.7071 0.7071
vn 0.7071 0.0000 0.7071
vn 0.0000 -0.7071 -0.7071
vn -0.7071 0.0000 0.7071
vn 0.0000 0.7071 0.7071
vn 0.7071 0.0000 -0.7071
vn 0.0000 1.0000 0.0000
s off
f 4/1/1 22/2/1 18/3/1
f 19/4/2 16/5/2 24/6/2
f 9/7/3 23/8/3 11/9/3
f 15/10/4 8/11/4 2/12/4
f 3/13/5 10/14/5 6/15/5
f 1/16/6 2/17/6 3/18/6
f 4/1/7 5/19/7 6/20/7
f 7/21/8 8/22/8 9/23/8
f 10/24/9 11/25/9 12/26/9
f 13/27/10 14/28/10 15/29/10
f 16/30/11 17/31/11 18/3/11
f 19/32/12 20/33/12 21/34/12
f 22/2/13 23/35/13 24/36/13
f 22/2/14 16/30/14 18/3/14
f 18/3/15 5/19/15 4/1/15
f 6/15/16 1/37/16 3/13/16
f 20/38/17 24/6/17 23/8/17
f 11/9/18 7/39/18 9/7/18
f 17/40/19 14/41/19 13/42/19
f 21/43/20 9/44/20 8/45/20
f 8/45/21 3/46/21 2/47/21
f 12/26/22 23/35/22 22/2/22
f 15/48/23 19/49/23 21/43/23
f 2/47/24 13/50/24 15/48/24
f 4/1/25 10/24/25 12/26/25
f 13/42/26 5/51/26 17/40/26
f 4/1/1 12/26/1 22/2/1
f 19/4/2 14/41/2 16/5/2
f 9/7/3 20/38/3 23/8/3
f 15/10/4 21/52/4 8/11/4
f 3/13/5 7/39/5 10/14/5
f 22/2/14 24/36/14 16/30/14
f 18/3/15 17/31/15 5/19/15
f 6/15/16 5/51/16 1/37/16
f 20/38/17 19/4/17 24/6/17
f 11/9/18 10/14/18 7/39/18
f 17/40/19 16/5/19 14/41/19
f 21/43/20 20/53/20 9/44/20
f 8/45/21 7/54/21 3/46/21
f 12/26/22 11/25/22 23/35/22
f 15/48/23 14/55/23 19/49/23
f 2/47/24 1/56/24 13/50/24
f 4/1/25 6/20/25 10/24/25
f 13/42/26 1/37/26 5/51/26
