# Blender v2.80 (sub 75) OBJ File: ''
# www.blender.org
mtllib arrow.mtl
o Cube
v -0.000000 0.020000 1.000000
v -0.000000 -0.020000 1.000000
v 0.200000 0.020000 -1.000000
v 0.200000 -0.020000 -1.000000
v -0.200000 0.020000 -1.000000
v -0.200000 -0.020000 -1.000000
v 0.631076 -0.020000 0.361554
v -0.648924 0.020000 0.361554
v -0.648924 -0.020000 0.361554
v 0.631076 0.020000 0.361554
v 0.200000 -0.020000 0.359655
v -0.200000 0.020000 0.359655
v -0.200000 -0.020000 0.359655
v 0.200000 0.020000 0.359655
vt 0.455043 0.250000
vt 0.625000 0.000000
vt 0.455043 0.000000
vt 0.375000 0.500000
vt 0.625000 0.330043
vt 0.375000 0.330043
vt 0.375000 0.750000
vt 0.625000 0.500000
vt 0.576873 0.750000
vt 0.576873 1.000000
vt 0.625000 1.000000
vt 0.625000 0.750000
vt 0.875000 0.701874
vt 0.625000 0.701874
vt 0.875000 0.669957
vt 0.625000 0.669957
vt 0.544957 1.000000
vt 0.544957 0.750000
vt 0.375000 0.298127
vt 0.625000 0.250000
vt 0.375000 0.250000
vt 0.375000 0.000000
vt 0.423127 0.250000
vt 0.423127 0.000000
vt 0.375000 1.000000
vt 0.875000 0.500000
vt 0.625000 0.500000
vt 0.625000 0.298127
vt 0.625000 0.250000
vt 0.625000 0.750000
vt 0.875000 0.750000
vn 0.0000 -1.0000 0.0000
vn 1.0000 0.0000 0.0000
vn 0.0000 0.0000 1.0000
vn 0.0000 1.0000 0.0000
vn -0.7112 0.0000 -0.7030
vn -0.0044 0.0000 1.0000
vn 0.7013 0.0000 -0.7128
vn -1.0000 0.0000 0.0000
vn 0.0042 0.0000 1.0000
usemtl Material
s off
f 12/1/1 3/2/1 14/3/1
f 6/4/2 12/5/2 13/6/2
f 4/7/3 5/8/3 6/4/3
f 7/9/4 9/10/4 2/11/4
f 2/12/5 10/13/5 7/14/5
f 7/14/6 14/15/6 11/16/6
f 13/17/4 7/9/4 11/18/4
f 9/19/7 1/20/7 2/21/7
f 1/22/1 8/23/1 10/24/1
f 6/25/4 11/18/4 4/7/4
f 11/16/8 3/26/8 4/27/8
f 13/6/9 8/28/9 9/19/9
f 10/24/1 12/1/1 14/3/1
f 12/1/1 5/29/1 3/2/1
f 6/4/2 5/8/2 12/5/2
f 4/7/3 3/30/3 5/8/3
f 2/12/5 1/31/5 10/13/5
f 7/14/6 10/13/6 14/15/6
f 13/17/4 9/10/4 7/9/4
f 9/19/7 8/28/7 1/20/7
f 6/25/4 13/17/4 11/18/4
f 11/16/8 14/15/8 3/26/8
f 13/6/9 12/5/9 8/28/9
f 10/24/1 8/23/1 12/1/1
